<?xml version="1.0" encoding="utf-8"?>
<!-- Generator: Adobe Illustrator 26.3.0, SVG Export Plug-In . SVG Version: 6.00 Build 0)  -->
<svg version="1.1" xmlns="http://www.w3.org/2000/svg" xmlns:xlink="http://www.w3.org/1999/xlink" x="0px" y="0px"
	 viewBox="0 0 96 21" style="enable-background:new 0 0 96 21;" xml:space="preserve">
<style type="text/css">
	.st0{display:none;}
	.st1{display:inline;fill:#FEF5E4;}
</style>
<g id="Layer_1" class="st0">
	<path class="st1" d="M1,20v-0.3l0.6-0.2c0.6-0.2,1-0.7,1-1.6V3.6c0-0.4,0-0.7-0.1-0.9C2.3,2.5,2.1,2.3,1.7,2.1L1,1.8V1.5h5.4
		l5.2,13.6l4.9-13.6H22v0.3L21.5,2c-0.4,0.1-0.6,0.3-0.7,0.6c-0.1,0.2-0.2,0.5-0.2,0.9v14.6c0,0.4,0,0.7,0.1,0.9
		c0.1,0.2,0.3,0.4,0.7,0.5l0.6,0.3V20h-7v-0.3l0.6-0.3c0.4-0.1,0.6-0.3,0.7-0.5c0.1-0.2,0.1-0.5,0.1-0.9v-6.3l0.1-8L10.6,20H9.2
		L3.1,4l0.1,7V18c0,0.4,0.1,0.7,0.2,1c0.1,0.2,0.4,0.4,0.7,0.5l0.6,0.2V20H1z M29.5,20.4c-1.4,0-2.7-0.3-3.7-0.9
		c-1-0.6-1.9-1.4-2.4-2.5c-0.6-1.1-0.8-2.4-0.8-3.8s0.3-2.7,0.9-3.8C24,8.4,24.9,7.6,25.9,7c1.1-0.6,2.3-0.9,3.6-0.9
		C30.8,6.1,32,6.4,33,7c1,0.6,1.9,1.4,2.5,2.4c0.6,1.1,0.9,2.3,0.9,3.8s-0.3,2.8-0.9,3.8c-0.6,1.1-1.4,1.9-2.4,2.5
		C32.1,20.1,30.9,20.4,29.5,20.4z M29.5,19.9c0.7,0,1.2-0.2,1.6-0.6c0.4-0.4,0.7-1,0.8-2c0.2-1,0.3-2.3,0.3-4c0-1.8-0.1-3.1-0.3-4.1
		c-0.2-1-0.4-1.6-0.8-2c-0.4-0.4-0.9-0.6-1.6-0.6c-0.7,0-1.2,0.2-1.6,0.6c-0.4,0.4-0.7,1-0.9,2c-0.2,1-0.3,2.3-0.3,4.1
		c0,1.7,0.1,3.1,0.3,4c0.2,1,0.5,1.6,0.9,2C28.3,19.7,28.8,19.9,29.5,19.9z M37.7,20v-0.3l0.4-0.1c0.7-0.2,1-0.6,1-1.4V9.5
		c0-0.4-0.1-0.7-0.2-0.9c-0.1-0.2-0.4-0.3-0.8-0.4L37.7,8V7.8l4.8-1.6l0.3,0.3l0.2,1.7c0.7-0.6,1.4-1.1,2.2-1.4
		c0.8-0.4,1.6-0.6,2.4-0.6c1.2,0,2.2,0.3,2.8,1c0.7,0.7,1,1.7,1,3.1v8.1c0,0.7,0.4,1.2,1.1,1.4l0.3,0.1V20h-6.6v-0.3l0.4-0.1
		c0.7-0.2,1-0.7,1-1.4V9.3c0-1.2-0.6-1.8-1.8-1.8c-0.8,0-1.7,0.4-2.7,1.2v9.5c0,0.7,0.3,1.2,1,1.4l0.3,0.1V20H37.7z M57.2,4.7
		c-0.6,0-1.2-0.2-1.6-0.6c-0.4-0.4-0.6-0.9-0.6-1.5c0-0.6,0.2-1.1,0.6-1.5c0.4-0.4,1-0.6,1.6-0.6c0.6,0,1.2,0.2,1.6,0.6
		c0.4,0.4,0.6,0.9,0.6,1.5c0,0.6-0.2,1.1-0.6,1.5C58.4,4.5,57.8,4.7,57.2,4.7z M53.9,20v-0.3l0.4-0.1c0.4-0.1,0.6-0.3,0.8-0.5
		c0.1-0.2,0.2-0.5,0.2-0.9V9.4c0-0.4-0.1-0.7-0.2-0.9c-0.1-0.2-0.4-0.3-0.8-0.4l-0.4-0.1V7.8L59,6.1l0.3,0.3l-0.1,4v7.8
		c0,0.4,0.1,0.7,0.2,0.9c0.1,0.2,0.4,0.4,0.8,0.5l0.3,0.1V20H53.9z M68.6,20.4c-1.3,0-2.4-0.3-3.5-0.8c-1-0.6-1.8-1.4-2.5-2.4
		c-0.6-1.1-0.9-2.4-0.9-3.9c0-1.5,0.3-2.8,1-3.9c0.7-1.1,1.6-1.9,2.7-2.5c1.1-0.6,2.3-0.9,3.7-0.9c1.1,0,2,0.2,2.7,0.5
		C72.6,7,73.2,7.5,73.6,8c0.4,0.6,0.6,1.1,0.6,1.8c0,0.5-0.2,0.9-0.5,1.2c-0.3,0.3-0.7,0.4-1.2,0.4c-0.5,0-1-0.2-1.3-0.6
		s-0.5-0.9-0.6-1.5c0-0.4,0-0.8,0-1c0-0.3,0-0.6,0-0.9c-0.1-0.3-0.2-0.5-0.4-0.6c-0.1-0.1-0.4-0.2-0.6-0.2c-1.1,0-2,0.5-2.7,1.5
		c-0.6,1-0.9,2.6-0.9,4.7c0,1.9,0.3,3.3,1,4.3c0.7,1,1.8,1.5,3.2,1.5c0.9,0,1.6-0.2,2.1-0.5c0.5-0.3,1.1-0.8,1.6-1.4l0.3,0.2
		c-0.5,1.1-1.2,2-2.2,2.5C71.1,20.1,70,20.4,68.6,20.4z M79.6,20.4c-1.1,0-2-0.3-2.7-0.9c-0.7-0.6-1.1-1.5-1.1-2.7
		c0-0.9,0.4-1.7,1.3-2.4c0.9-0.7,2.3-1.3,4.2-1.7c0.3-0.1,0.6-0.1,1-0.2c0.4-0.1,0.8-0.1,1.2-0.2v-2.2c0-1.3-0.2-2.2-0.5-2.7
		c-0.3-0.5-0.8-0.8-1.4-0.8c-0.4,0-0.8,0.1-1.1,0.4c-0.3,0.3-0.4,0.8-0.5,1.5L80,8.9c0,0.8-0.2,1.4-0.6,1.8
		c-0.4,0.4-0.8,0.6-1.3,0.6c-0.5,0-0.9-0.1-1.2-0.4c-0.3-0.3-0.5-0.7-0.5-1.2c0-0.8,0.3-1.4,0.8-1.9c0.5-0.5,1.3-0.9,2.1-1.2
		c0.9-0.3,1.8-0.4,2.9-0.4c1.7,0,2.9,0.4,3.8,1.2c0.9,0.8,1.4,2.1,1.4,3.9v6.2c0,0.8,0.4,1.3,1.2,1.3h0.6l0.3,0.2
		c-0.4,0.4-0.7,0.8-1.2,1c-0.4,0.2-1,0.4-1.8,0.4c-0.8,0-1.5-0.2-2-0.6c-0.5-0.4-0.8-0.9-0.9-1.5c-0.6,0.6-1.1,1.1-1.7,1.5
		C81.3,20.2,80.5,20.4,79.6,20.4z M81.3,18.7c0.4,0,0.7-0.1,1-0.3c0.3-0.2,0.7-0.5,1.2-0.8v-4.7C83.3,13,83.2,13,83,13
		c-0.2,0-0.4,0.1-0.6,0.1c-0.9,0.2-1.5,0.6-2.1,1.1c-0.5,0.5-0.8,1.2-0.8,2.1c0,0.8,0.2,1.3,0.5,1.7C80.4,18.5,80.8,18.7,81.3,18.7z
		 M93.4,20.4c-0.7,0-1.2-0.2-1.7-0.7c-0.5-0.5-0.7-1-0.7-1.7c0-0.7,0.2-1.2,0.7-1.7c0.5-0.5,1-0.7,1.7-0.7c0.7,0,1.2,0.2,1.7,0.7
		c0.5,0.5,0.7,1.1,0.7,1.7c0,0.7-0.2,1.2-0.7,1.7C94.6,20.2,94.1,20.4,93.4,20.4z"/>
</g>
<g id="Layer_2">
	
		<image style="overflow:visible;" width="2560" height="751" xlink:href="../Nkachi Design Design Tag.png"  transform="matrix(3.750000e-02 0 0 3.292452e-02 0 -1.4786)">
	</image>
</g>
</svg>
