<?xml version="1.0" encoding="utf-8"?>
<!-- Generator: Adobe Illustrator 26.3.0, SVG Export Plug-In . SVG Version: 6.00 Build 0)  -->
<svg version="1.1" xmlns="http://www.w3.org/2000/svg" xmlns:xlink="http://www.w3.org/1999/xlink" x="0px" y="0px"
	 viewBox="0 0 510 175" style="enable-background:new 0 0 510 175;" xml:space="preserve">
<style type="text/css">
	.st0{fill:none;}
	.st1{fill:#FFFFFF;}
	.st2{fill:none;stroke:#000000;stroke-width:4;stroke-miterlimit:10;}
	.st3{stroke:#000000;stroke-width:0.5;stroke-linecap:round;stroke-linejoin:round;}
	.st4{fill:#FFFFFD;}
</style>
<g id="Layer_1">
	<g>
		<rect x="-309.8" y="60.5" class="st0" width="354" height="93"/>
	</g>
	<g>
		<rect x="203" y="30.7" class="st0" width="637.9" height="205.2"/>
		<path d="M222,31.8h8.7l17.4,45.3h-9l-3.5-9.3h-18.5l-3.7,9.3h-9L222,31.8z M226.4,43.8l-6.1,15.5h12.1L226.4,43.8z"/>
		<path d="M278.5,38l-6.4,5.6c-2.2-3.1-4.5-4.7-6.8-4.7c-1.1,0-2.1,0.3-2.8,0.9c-0.7,0.6-1.1,1.3-1.1,2c0,0.8,0.3,1.5,0.8,2.2
			c0.7,0.9,2.8,2.8,6.3,5.8c3.3,2.7,5.3,4.5,6,5.2c1.7,1.8,3,3.5,3.7,5.1c0.7,1.6,1.1,3.4,1.1,5.3c0,3.7-1.3,6.8-3.8,9.2
			c-2.6,2.4-5.9,3.6-10,3.6c-3.2,0-6-0.8-8.4-2.4s-4.4-4.1-6.1-7.4l7.2-4.4c2.2,4,4.7,6,7.5,6c1.5,0,2.7-0.4,3.7-1.3
			c1-0.9,1.5-1.9,1.5-3c0-1-0.4-2.1-1.1-3.1c-0.8-1-2.4-2.6-5-4.7c-4.9-4-8.1-7.1-9.6-9.3c-1.4-2.2-2.2-4.4-2.2-6.5
			c0-3.1,1.2-5.8,3.6-8.1c2.4-2.2,5.3-3.4,8.9-3.4c2.3,0,4.4,0.5,6.5,1.6C273.9,33.3,276.1,35.2,278.5,38z"/>
		<path d="M283.1,31.8h25v8.5h-8.2v36.8h-8.7V40.3h-8V31.8z"/>
		<path d="M249.9,99.2l-6.1,6c-3.8-4.1-8.3-6.1-13.4-6.1c-4.5,0-8.2,1.5-11.2,4.4s-4.5,6.5-4.5,10.8c0,4.4,1.6,8.1,4.7,11.1
			s7,4.6,11.5,4.6c3,0,5.5-0.6,7.5-1.9c2-1.3,3.7-3.2,4.9-5.9h-13.1v-8.1h22.8l0.1,1.9c0,4-1,7.7-3.1,11.3s-4.7,6.3-8,8.1
			s-7.1,2.8-11.5,2.8c-4.7,0-8.9-1-12.6-3.1c-3.7-2-6.6-4.9-8.7-8.7c-2.1-3.8-3.2-7.8-3.2-12.2c0-6,2-11.2,5.9-15.6
			c4.7-5.3,10.8-7.9,18.3-7.9c3.9,0,7.6,0.7,11,2.2C244.3,94.1,247.2,96.2,249.9,99.2z"/>
		<path d="M261.1,91.8h8.6v37h12.6v8.2h-21.2V91.8z"/>
		<path d="M310.2,90.7c6.4,0,11.9,2.3,16.5,7c4.6,4.6,6.9,10.3,6.9,17c0,6.6-2.3,12.2-6.8,16.8c-4.5,4.6-10.1,6.9-16.5,6.9
			c-6.8,0-12.4-2.3-16.9-7s-6.7-10.3-6.7-16.7c0-4.3,1-8.3,3.1-11.9c2.1-3.6,5-6.5,8.6-8.6C302,91.7,305.9,90.7,310.2,90.7z
			 M310.1,99.1c-4.2,0-7.7,1.5-10.6,4.4s-4.3,6.6-4.3,11.1c0,5,1.8,9,5.4,11.9c2.8,2.3,6,3.4,9.6,3.4c4.1,0,7.6-1.5,10.4-4.4
			s4.3-6.6,4.3-10.9c0-4.3-1.4-8-4.3-10.9C317.7,100.6,314.2,99.1,310.1,99.1z"/>
		<path d="M341.7,137.1V91.8h7.1c4.1,0,7.1,0.3,9.1,0.8c2.7,0.7,4.9,2.1,6.5,4s2.4,4.2,2.4,6.9c0,1.7-0.4,3.3-1.1,4.7
			c-0.7,1.4-1.9,2.7-3.6,4c2.7,1.3,4.8,2.9,6,4.8c1.3,1.9,1.9,4.2,1.9,6.9c0,2.5-0.7,4.9-2,7s-3,3.7-5.1,4.7c-2.1,1-4.9,1.6-8.6,1.6
			H341.7z M350.3,100v9.5h1.9c2.1,0,3.7-0.4,4.7-1.3c1-0.9,1.5-2.1,1.5-3.6c0-1.4-0.5-2.5-1.5-3.4c-1-0.8-2.4-1.2-4.4-1.2H350.3z
			 M350.3,117.3v11.6h2.2c3.6,0,6-0.5,7.2-1.4s1.9-2.2,1.9-3.9c0-1.9-0.7-3.5-2.2-4.6c-1.5-1.1-3.9-1.7-7.3-1.7H350.3z"/>
		<path d="M392.1,91.8h8.7l17.4,45.2h-9l-3.5-9.3h-18.5l-3.7,9.3h-9L392.1,91.8z M396.5,103.8l-6.1,15.5h12.1L396.5,103.8z"/>
		<path d="M424.9,91.8h8.6v37H446v8.2h-21.2V91.8z"/>
	</g>
</g>
<g id="Layer_5">
	<ellipse cx="121" cy="86.3" rx="65.6" ry="66"/>
	<g id="Layer_6">
		<path class="st1" d="M103.2,44.1c0,0-6.1,3.2-7.6,10.2h15C110.6,54.4,109.1,47,103.2,44.1z"/>
		<path class="st1" d="M97.3,44.6c0,0-5,5.8-5.4,9.8H81.6C81.6,54.4,90.9,44.6,97.3,44.6z"/>
		<path class="st1" d="M109.5,45c0,0,4.9,5.6,5.3,9.4h10C124.8,54.4,116.9,45,109.5,45z"/>
		<path class="st1" d="M95.7,57.4h15.9c0,0,1.3,5.7,0.9,9.7H93.6C93.6,67.1,93.9,59.1,95.7,57.4z"/>
		<path class="st1" d="M115,57.4h11.6c0,0,3,5.1,2.8,9.7h-13.3C116.1,67.1,116.6,64.9,115,57.4z"/>
		<path class="st1" d="M91.3,57.4H79.7c0,0-3,5.1-2.8,9.7h13.3C90.2,67.1,89.7,64.9,91.3,57.4z"/>
		<path class="st1" d="M76.9,70.7h13.5l2.3,8.9l-13.9-2.5C78.8,77.1,77.7,76.9,76.9,70.7z"/>
		<path class="st1" d="M129.3,70.7h-13.5l-0.9,8.9l12.5-2.5C127.4,77.1,128.6,76.9,129.3,70.7z"/>
		<rect x="76.4" y="77.1" class="st1" width="52.7" height="20.1"/>
		<path class="st1" d="M94.5,70.7h18.1c0,0-0.6,7.4-2,8.9H96.4C96.4,79.6,94.5,74.3,94.5,70.7z"/>
	</g>
</g>
<g id="Layer_2">
</g>
<g id="Layer_3">
</g>
<g id="Layer_4">
</g>
<g id="Layer_7">
	<g id="Layer_8">
	</g>
</g>
</svg>
