<?xml version="1.0" encoding="utf-8"?>
<!-- Generator: Adobe Illustrator 26.3.0, SVG Export Plug-In . SVG Version: 6.00 Build 0)  -->
<svg version="1.1" xmlns="http://www.w3.org/2000/svg" xmlns:xlink="http://www.w3.org/1999/xlink" x="0px" y="0px"
	 viewBox="0 0 510 175" style="enable-background:new 0 0 510 175;" xml:space="preserve">
<style type="text/css">
	.st0{fill:none;}
	.st1{fill:#FFFFFF;}
	.st2{fill:none;stroke:#000000;stroke-width:4;stroke-miterlimit:10;}
	.st3{stroke:#000000;stroke-width:0.5;stroke-linecap:round;stroke-linejoin:round;}
	.st4{fill:#FFFFFD;}
</style>
<g id="Layer_1">
	<g>
		<rect x="-405.1" y="69" class="st0" width="637.9" height="205.2"/>
	</g>
	<g>
		<rect x="205.1" y="61.4" class="st0" width="637.9" height="205.2"/>
		<path d="M241.9,70.6l-8.1,7.1c-2.8-4-5.7-5.9-8.7-5.9c-1.4,0-2.6,0.4-3.5,1.2c-0.9,0.8-1.4,1.6-1.4,2.6c0,1,0.3,1.9,1,2.7
			c0.9,1.1,3.6,3.6,8,7.4c4.2,3.5,6.7,5.7,7.6,6.6c2.2,2.2,3.8,4.4,4.7,6.4c0.9,2,1.4,4.3,1.4,6.7c0,4.7-1.6,8.6-4.9,11.7
			c-3.3,3.1-7.5,4.6-12.7,4.6c-4.1,0-7.7-1-10.7-3s-5.6-5.2-7.8-9.5l9.2-5.5c2.8,5.1,5.9,7.6,9.5,7.6c1.9,0,3.5-0.5,4.7-1.6
			s1.9-2.4,1.9-3.8c0-1.3-0.5-2.6-1.4-3.9c-1-1.3-3.1-3.3-6.4-6c-6.3-5.1-10.3-9-12.1-11.8s-2.7-5.5-2.7-8.3c0-4,1.5-7.4,4.6-10.3
			c3-2.9,6.8-4.3,11.2-4.3c2.9,0,5.6,0.7,8.2,2C236,64.7,238.8,67.1,241.9,70.6z"/>
		<path d="M306.4,72.2l-7.7,7.6c-4.9-5.2-10.6-7.7-17-7.7c-5.7,0-10.4,1.9-14.2,5.6s-5.7,8.3-5.7,13.7c0,5.5,2,10.2,5.9,14.1
			c4,3.9,8.9,5.8,14.7,5.8c3.8,0,7-0.8,9.6-2.4c2.6-1.6,4.7-4.1,6.3-7.5h-16.6V91.1h28.9l0.1,2.4c0,5-1.3,9.8-3.9,14.3
			c-2.6,4.5-6,7.9-10.1,10.3s-9,3.6-14.6,3.6c-6,0-11.3-1.3-16-3.9c-4.7-2.6-8.4-6.3-11.1-11.1c-2.7-4.8-4.1-10-4.1-15.5
			c0-7.6,2.5-14.2,7.5-19.8c6-6.7,13.7-10,23.3-10c5,0,9.7,0.9,14,2.8C299.2,65.7,302.8,68.4,306.4,72.2z"/>
		<path d="M319.7,62.8h10.9v57.5h-10.9V62.8z"/>
		<path d="M343.2,94.1H363v9.9h-19.8V94.1z"/>
		<path d="M406.6,70.6l-8.1,7.1c-2.8-4-5.7-5.9-8.7-5.9c-1.4,0-2.6,0.4-3.5,1.2c-0.9,0.8-1.4,1.6-1.4,2.6c0,1,0.3,1.9,1,2.7
			c0.9,1.1,3.6,3.6,8,7.4c4.2,3.5,6.7,5.7,7.6,6.6c2.2,2.2,3.8,4.4,4.7,6.4c0.9,2,1.4,4.3,1.4,6.7c0,4.7-1.6,8.6-4.9,11.7
			c-3.3,3.1-7.5,4.6-12.7,4.6c-4.1,0-7.7-1-10.7-3s-5.6-5.2-7.8-9.5l9.2-5.5c2.8,5.1,5.9,7.6,9.5,7.6c1.9,0,3.5-0.5,4.7-1.6
			s1.9-2.4,1.9-3.8c0-1.3-0.5-2.6-1.4-3.9c-1-1.3-3.1-3.3-6.4-6c-6.3-5.1-10.3-9-12.1-11.8s-2.7-5.5-2.7-8.3c0-4,1.5-7.4,4.6-10.3
			c3-2.9,6.8-4.3,11.2-4.3c2.9,0,5.6,0.7,8.2,2C400.8,64.7,403.6,67.1,406.6,70.6z"/>
		<path d="M435.6,62.8h11.1l22.1,57.5h-11.4l-4.5-11.8h-23.4l-4.7,11.8h-11.4L435.6,62.8z M441.2,78.1l-7.7,19.7h15.4L441.2,78.1z"
			/>
	</g>
</g>
<g id="Layer_5">
	<g id="Layer_6">
	</g>
</g>
<g id="Layer_2">
	
		<image style="overflow:visible;" width="220" height="133" xlink:href="2794F027.png"  transform="matrix(0.7833 0 0 0.7833 27.2526 29.7263)">
	</image>
</g>
<g id="Layer_3">
	<path d="M28.6,96.2c0,0,0-4.8,7.3-4.5s2.8,5.8,2.8,5.8s-1.9,1.5-4.4,1.3C31.8,98.4,31.1,99.7,28.6,96.2z"/>
	<g>
		<path d="M129.4,42.1c0,0,5.6,1.5,1.3,8.6c-4.3,7.1-8.8,3.8-8.8,3.8s-2.8-3,0-8.8S129.4,42.1,129.4,42.1z"/>
		<path d="M184.4,71.7c0,0,0.5,3.8-4,4.5c-4.5,0.8-6.8,0-6.8,0s-2.8-4,4.3-7.2S184.4,71.7,184.4,71.7z"/>
		<path d="M196.8,111.1c0,0,1,3.5-4.5,2.8c-5.6-0.8-6.3-4-6.3-4s1.3-2.5,6.8-2S196.8,111.1,196.8,111.1z"/>
		<path d="M48.4,93.5L35.5,82.2c0,0,30.7-5.5,55.2,34.1c0,0-23.7-9.9-34.9-10.4s-21.5,10.4-21.5,10.4S35.5,107.4,48.4,93.5z"/>
		<path d="M107.4,62.3c-18.2,26.5-1,60-1,60c21.2-64.4,53.8-64.8,53.8-64.8s-2.7-2.2-13.3-3.4c-10.6-1.3-24.4,8.7-24.4,8.7
			s-4.7,2.3-6.3-7.5c-1.5-9.8-8.8-11.9-8.8-11.9l2,15.7L107.4,62.3z"/>
		<path d="M173,66.1c0,0-5,4-7.5,10.4c-2.5,6.5,15.2,8.3,15.2,8.3s16.2,10.6,10.8,9.1c-41.3-11.6-69.9,22.7-69.9,22.7
			S131.6,66.1,173,66.1z"/>
		<path d="M187.7,102.2c0,0-8.8,6.4-7.6,8.6s8.6,8.6,9.9,12.1c1.3,3.5,1.5,6.8,1.5,6.8s-11.8-15.1-51.8-15.8
			C139.7,114,166,95.9,187.7,102.2z"/>
		<path d="M99,68.1c0,0-11.8,24.6,7.9,63.7c0,0,12.9-41.9,25.4-53.8l2.2,3.6c0,0-16.4,18.4-17.9,44.2l22-18c0,0-2.3,24.4-31.6,25.3
			c0,0-19.9,1.7-30-17.7l22.5,10.1c0,0-11.1-24.6-25.1-34C74.3,91.4,79.5,70.5,99,68.1z"/>
	</g>
</g>
<g id="Layer_4">
</g>
<g id="Layer_7">
	<g id="Layer_8">
	</g>
</g>
</svg>
