<?xml version="1.0" encoding="utf-8"?>
<!-- Generator: Adobe Illustrator 26.3.0, SVG Export Plug-In . SVG Version: 6.00 Build 0)  -->
<svg version="1.1" xmlns="http://www.w3.org/2000/svg" xmlns:xlink="http://www.w3.org/1999/xlink" x="0px" y="0px"
	 viewBox="0 0 510 175" style="enable-background:new 0 0 510 175;" xml:space="preserve">
<style type="text/css">
	.st0{fill:none;}
	.st1{fill:#FFFFFF;}
	.st2{fill:none;stroke:#000000;stroke-width:4;stroke-miterlimit:10;}
	.st3{stroke:#000000;stroke-width:0.5;stroke-linecap:round;stroke-linejoin:round;}
	.st4{fill:#FFFFFD;}
</style>
<g id="Layer_1">
	<g>
		<rect x="-327" y="30.7" class="st0" width="637.9" height="205.2"/>
	</g>
	<g>
		<rect x="124.9" y="69" class="st0" width="637.9" height="205.2"/>
		<path d="M153.8,76.3l-6.4,5.6c-2.2-3.1-4.5-4.7-6.8-4.7c-1.1,0-2.1,0.3-2.8,0.9c-0.7,0.6-1.1,1.3-1.1,2c0,0.8,0.3,1.5,0.8,2.2
			c0.7,0.9,2.8,2.8,6.3,5.8c3.3,2.7,5.3,4.5,6,5.2c1.7,1.8,3,3.5,3.7,5.1c0.7,1.6,1.1,3.4,1.1,5.3c0,3.7-1.3,6.8-3.8,9.2
			s-5.9,3.6-10,3.6c-3.2,0-6-0.8-8.4-2.4s-4.4-4.1-6.1-7.4l7.2-4.4c2.2,4,4.7,6,7.5,6c1.5,0,2.7-0.4,3.7-1.3c1-0.9,1.5-1.9,1.5-3
			c0-1-0.4-2-1.1-3.1c-0.8-1-2.4-2.6-5-4.7c-4.9-4-8.1-7.1-9.6-9.3c-1.4-2.2-2.2-4.4-2.2-6.5c0-3.1,1.2-5.8,3.6-8.1
			c2.4-2.2,5.3-3.4,8.9-3.4c2.3,0,4.4,0.5,6.5,1.6C149.2,71.6,151.4,73.5,153.8,76.3z"/>
		<path d="M158.3,70.1h25v8.5h-8.2v36.8h-8.7V78.6h-8V70.1z"/>
		<path d="M210.6,69c6.4,0,11.9,2.3,16.5,7c4.6,4.6,6.9,10.3,6.9,17c0,6.6-2.3,12.2-6.8,16.8c-4.5,4.6-10.1,6.9-16.5,6.9
			c-6.8,0-12.4-2.3-16.9-7c-4.5-4.7-6.7-10.3-6.7-16.7c0-4.3,1-8.3,3.1-11.9c2.1-3.6,5-6.5,8.6-8.6C202.4,70.1,206.4,69,210.6,69z
			 M210.5,77.4c-4.2,0-7.7,1.5-10.6,4.4c-2.9,2.9-4.3,6.6-4.3,11.1c0,5,1.8,9,5.4,11.9c2.8,2.3,6,3.4,9.6,3.4
			c4.1,0,7.6-1.5,10.4-4.4s4.3-6.6,4.3-10.9c0-4.3-1.4-8-4.3-10.9C218.2,78.9,214.7,77.4,210.5,77.4z"/>
		<path d="M242.2,70.1h8.3l19.4,29.8V70.1h8.6v45.3h-8.3l-19.3-29.7v29.7h-8.6V70.1z"/>
		<path d="M288.8,70.1h24.7v8.4h-16.2v8.2h16.2V95h-16.2v11.9h16.2v8.5h-24.7V70.1z"/>
		<path d="M322.1,70.1h9.1c5,0,8.6,0.4,10.7,1.3c2.1,0.9,3.8,2.4,5.1,4.4c1.3,2.1,1.9,4.5,1.9,7.4c0,3-0.7,5.5-2.1,7.5
			c-1.4,2-3.6,3.5-6.4,4.5l10.7,20.1h-9.4l-10.2-19.2h-0.8v19.2h-8.6V70.1z M330.7,87.8h2.7c2.7,0,4.6-0.4,5.7-1.1
			c1-0.7,1.5-1.9,1.5-3.6c0-1-0.3-1.8-0.8-2.6c-0.5-0.7-1.2-1.3-2.1-1.6c-0.9-0.3-2.4-0.5-4.7-0.5h-2.4V87.8z"/>
		<path d="M357.5,70.1h8.6v45.3h-8.6V70.1z"/>
		<path d="M375.7,70.1h10.2c6.6,0,11.5,0.8,14.7,2.4c3.2,1.6,5.8,4.3,7.9,8c2.1,3.7,3.1,8,3.1,12.9c0,3.5-0.6,6.7-1.7,9.6
			c-1.2,2.9-2.8,5.3-4.8,7.3c-2,1.9-4.2,3.3-6.6,4s-6.5,1.1-12.4,1.1h-10.4V70.1z M384.3,78.4V107h4c3.9,0,6.8-0.5,8.6-1.4
			c1.8-0.9,3.2-2.4,4.4-4.6c1.1-2.1,1.7-4.8,1.7-7.9c0-4.8-1.3-8.5-4-11.2c-2.4-2.4-6.3-3.6-11.7-3.6H384.3z"/>
		<path d="M461.6,77.5l-6.1,6c-3.8-4.1-8.3-6.1-13.4-6.1c-4.5,0-8.2,1.5-11.2,4.4s-4.5,6.5-4.5,10.8c0,4.4,1.6,8.1,4.7,11.1
			s7,4.6,11.5,4.6c3,0,5.5-0.6,7.5-1.9c2-1.2,3.7-3.2,4.9-5.9H442v-8.1h22.8l0.1,1.9c0,4-1,7.7-3.1,11.3c-2.1,3.5-4.7,6.3-8,8.1
			c-3.3,1.9-7.1,2.8-11.5,2.8c-4.7,0-8.9-1-12.6-3.1c-3.7-2-6.6-4.9-8.7-8.7c-2.1-3.8-3.2-7.8-3.2-12.2c0-6,2-11.2,5.9-15.6
			c4.7-5.3,10.8-7.9,18.3-7.9c3.9,0,7.6,0.7,11,2.2C456,72.4,458.8,74.5,461.6,77.5z"/>
		<path d="M472.7,70.1h24.7v8.4h-16.2v8.2h16.2V95h-16.2v11.9h16.2v8.5h-24.7V70.1z"/>
	</g>
</g>
<g id="Layer_5">
	<g id="Layer_6">
	</g>
</g>
<g id="Layer_2">
</g>
<g id="Layer_3">
</g>
<g id="Layer_4">
</g>
<g id="Layer_7">
	<path d="M73.1,57.4c0,0,21.8,4.5,25.2,7.4c3.4,2.8,11,11.2,11.9,13.6c0.9,2.5,4.9,6.1,8.1,40.5h-105c0,0,1.7-13.7,11.9-32.7
		c0,0,16.1-8.6,17.6-8c0,0-0.9-6.8,4.9-13.5C47.9,64.8,62.8,57.4,73.1,57.4z"/>
	<g id="Layer_8">
	</g>
	<path class="st4" d="M51.1,67.6c0,0,7.1-4.3,22.3-6.8c0,0,19.4,4.5,21.1,6.3c0,0-3.6,4-7.6,5.7c-4,1.7-24.2,4.5-28.2,4.6
		C58.7,77.5,51.5,69.3,51.1,67.6"/>
	<path class="st4" d="M43.8,81.8c0,0,10.8,10.6,14.8,11.5s42.4,0.9,42.4,0.9s-29.4,12.3-32.5,12.3c-3.2,0-26.7-3.1-27.2-3.7
		c-0.6-0.6-10.7-11.3-12.5-14.3C28.7,88.5,37.1,83.2,43.8,81.8z"/>
	<path class="st4" d="M39.7,106.3c0,0,2.6,4.4,2.7,8.9H20.2C20.2,115.1,30.9,106.8,39.7,106.3z"/>
</g>
</svg>
