<?xml version="1.0" encoding="utf-8"?>
<!-- Generator: Adobe Illustrator 26.3.0, SVG Export Plug-In . SVG Version: 6.00 Build 0)  -->
<svg version="1.1" xmlns="http://www.w3.org/2000/svg" xmlns:xlink="http://www.w3.org/1999/xlink" x="0px" y="0px"
	 viewBox="0 0 510 175" style="enable-background:new 0 0 510 175;" xml:space="preserve">
<style type="text/css">
	.st0{fill:none;}
	.st1{fill:#FFFFFF;}
	.st2{fill:none;stroke:#000000;stroke-width:4;stroke-miterlimit:10;}
	.st3{stroke:#000000;stroke-width:0.5;stroke-linecap:round;stroke-linejoin:round;}
	.st4{fill:#FFFFFD;}
</style>
<g id="Layer_1">
	<g>
		<rect x="220.2" y="60.5" class="st0" width="354" height="93"/>
		<path d="M223.7,62h34.8l-20.5,47h19.1v10.5H222l20.4-46.6h-18.7V62z"/>
		<path d="M284.3,62h11.1l22.1,57.5h-11.4l-4.5-11.8h-23.4l-4.7,11.8h-11.4L284.3,62z M289.9,77.2l-7.7,19.7h15.4L289.9,77.2z"/>
		<path d="M356.1,69.8l-8.1,7.1c-2.8-4-5.7-5.9-8.7-5.9c-1.4,0-2.6,0.4-3.5,1.2c-0.9,0.8-1.4,1.6-1.4,2.6c0,1,0.3,1.9,1,2.7
			c0.9,1.1,3.6,3.6,8,7.4c4.2,3.5,6.7,5.7,7.6,6.6c2.2,2.2,3.8,4.4,4.7,6.4c0.9,2,1.4,4.3,1.4,6.7c0,4.7-1.6,8.6-4.9,11.7
			c-3.3,3.1-7.5,4.6-12.7,4.6c-4.1,0-7.7-1-10.7-3s-5.6-5.2-7.8-9.5l9.2-5.5c2.8,5.1,5.9,7.6,9.5,7.6c1.9,0,3.5-0.5,4.7-1.6
			s1.9-2.4,1.9-3.8c0-1.3-0.5-2.6-1.4-3.9c-1-1.3-3.1-3.3-6.4-6c-6.3-5.1-10.3-9-12.1-11.8s-2.7-5.5-2.7-8.3c0-4,1.5-7.4,4.6-10.3
			c3-2.9,6.8-4.3,11.2-4.3c2.9,0,5.6,0.7,8.2,2C350.3,63.8,353.1,66.3,356.1,69.8z"/>
		<path d="M385.1,62h11.1l22.1,57.5h-11.4l-4.5-11.8H379l-4.7,11.8h-11.4L385.1,62z M390.7,77.2L383,96.9h15.4L390.7,77.2z"/>
	</g>
	<g>
		<rect x="-333.1" y="35" class="st0" width="637.9" height="205.2"/>
	</g>
</g>
<g id="Layer_5">
	<g id="Layer_6">
	</g>
</g>
<g id="Layer_2">
</g>
<g id="Layer_3">
</g>
<g id="Layer_4">
	<ellipse class="st2" cx="140.1" cy="84.3" rx="61.5" ry="62.7"/>
	<ellipse class="st2" cx="140.2" cy="84.3" rx="56.1" ry="57.5"/>
	<path class="st3" d="M125.3,73.3c-0.4,3.5,2.7,8.1,2.7,8.1c-29.4-1.4-40.8,1.7-40.8,1.7c1.5,2.6,11.5,3.4,11.5,3.4
		c-3.3,0.4-11.5,5.6-11.5,5.6c3.4,0.8,13.3-0.9,13.3-0.9c-5.4,2.8-10.4,6.3-10.4,6.3c1.8,1.8,13.7-1.6,13.7-1.6
		c-7.1,3.6-7.1,5-7.1,5c4.2,0.9,9.9-1.6,9.9-1.6c5.7,2.5,19.3,3.3,23.7,3.3c4.4,0,9.4-1.9,11.4-2c2-0.1,2,11.1,2,11.1
		s2.3,5.9,8.7,5.8c6.4-0.1,8.8-7.1,8.8-7.1c-11.5-11.9-9.5-11.7-9.5-11.7c17.7,1,28.7-8.1,28.7-8.1s9.8-0.1,8.7-1.3
		c-1.1-1.2-6.4-3-6.4-3s12.1,0.1,11.2-1.7c-0.9-1.8-7.2-2.4-7.2-2.4s-9.7-0.8-4.1-1c5.6-0.3,12.9-1.8,11-3c-1.9-1.3-2.8-1.1-2.8-1.1
		s-13.5,0.9-10-0.3c3.5-1.2,7.6-3.5,7.6-3.5s5.9-4.8,2.5-3.4c-3.4,1.4-35.5,5.7-35.5,5.7c-6.8,4.5-17.4,4.2-17.4,4.2s-5-6.8-8.4-8.1
		s-3.4-0.5-3.4-0.5c-2.6-1.4-3.1,0.5-3.1,0.5S125.4,72.1,125.3,73.3z"/>
</g>
<g id="Layer_7">
	<g id="Layer_8">
	</g>
</g>
</svg>
